<?xml version="1.0" encoding="UTF-8"?><svg xmlns="http://www.w3.org/2000/svg" xmlns:xlink="http://www.w3.org/1999/xlink" version="1.1" id="Layer_1" x="0px" y="0px" viewBox="0 0 24 24" xml:space="preserve"><path fill="#48241B" d="M4.234 8.705l-.5 3.97h16.59l-.43-4.096"/><path fill="#FCD3C0" d="M12 23c-2.996 0-5.297-1.698-6.84-5.046C3.892 17.614 3 15.46 3 14.5c0-.726.11-1.72 1.002-2.296.013-.887.076-2.398.19-3.081l.07-.418h15.477l.07.418c.113.683.176 2.194.189 3.08.891.576 1.002 1.57 1.002 2.297 0 .96-.893 3.114-2.16 3.454C17.298 21.302 14.997 23 12 23z"/><path fill="#48241B" d="M3.949 12.114s.83 1.284.987 1.796c.154.5.094-4.854.094-4.854L4 9.901"/><path fill="#48241B" d="M20.032 12.166s-.83 1.284-.987 1.796c-.153.5-.094-4.853-.094-4.853l1.011-.102"/><path opacity="0.1" fill="#010101" d="M18.84 17.704c-1.543 3.348-3.844 5.046-6.84 5.046s-5.297-1.698-6.84-5.046c-1.25-.335-2.13-2.428-2.155-3.407-.003.069-.005.138-.005.203 0 .96.893 3.114 2.16 3.454C6.702 21.302 9.003 23 12 23s5.297-1.698 6.84-5.046C20.108 17.614 21 15.46 21 14.5c0-.065-.002-.134-.005-.203-.025.98-.906 3.072-2.154 3.407z"/><circle fill="#333" cx="8.5" cy="13" r="1"/><circle fill="#333" cx="15.5" cy="13" r="1"/><path fill="#333" d="M12 11c-3.02 0-7.423-.97-7.608-1.012L4 9.901V4.857h16V9.9l-.392.087C19.423 10.03 15.021 11 12 11z"/><path fill="#4E4E4E" d="M12 1l11 3.5L12 9 1 4.5z"/><path opacity="0.1" fill="#010101" d="M12 10.75c-3.02 0-7.423-.97-7.608-1.012L4 9.651v.25l.392.087C4.577 10.03 8.979 11 12 11s7.423-.97 7.608-1.012L20 9.901v-.25l-.392.087c-.185.041-4.587 1.012-7.608 1.012z"/><path opacity="0.1" fill="#010101" d="M12 8.75L1 4.5 12 9l11-4.5z"/><path opacity="0.2" fill="#FFF" d="M23 4.5L12 1 1 4.5l11-3.25z"/><path fill="#333" d="M22 10h-1V5.949a.5.5 0 0 0-.474-.5L11.974 5 12.026 4l8.553.45A1.5 1.5 0 0 1 22 5.95V10z"/><path fill="#333" d="M21.5 13l1-3-1-1.5-1 1.5z"/><ellipse fill="#333" cx="12" cy="4.5" rx="1.5" ry="1"/><linearGradient id="SVGID_1_" gradientUnits="userSpaceOnUse" x1="8.5327883" y1="2.2600527" x2="16.5181942" y2="10.2454596"><stop offset="0" stop-color="#010101" stop-opacity="0.1"/><stop offset="1" stop-color="#010101" stop-opacity="0"/></linearGradient><path fill="url(#SVGID_1_)" d="M12 9L4 5.727l5.061 5.062c1.004.123 2.033.211 2.939.211 3.02 0 7.423-.97 7.608-1.012L20 9.901V5.727L12 9z"/><linearGradient id="SVGID_2_" gradientUnits="userSpaceOnUse" x1="8.6595783" y1="6.6239643" x2="18.0701981" y2="16.034584"><stop offset="0" stop-color="#010101" stop-opacity="0.1"/><stop offset="1" stop-color="#010101" stop-opacity="0"/></linearGradient><path fill="url(#SVGID_2_)" d="M19.998 12.204a38.629 38.629 0 0 0-.102-2.28l-.288.064C19.423 10.03 15.021 11 12 11s-7.423-.97-7.608-1.012l-.288-.064-.006.075 11.785 11.785c1.177-.843 2.168-2.117 2.958-3.83C20.107 17.614 21 15.46 21 14.5c0-.726-.11-1.72-1.002-2.296z"/><linearGradient id="SVGID_3_" gradientUnits="userSpaceOnUse" x1="0.2652639" y1="6.0756469" x2="20.7869434" y2="15.6450634"><stop offset="0" stop-color="#FFF" stop-opacity="0.2"/><stop offset="1" stop-color="#FFF" stop-opacity="0"/></linearGradient><path fill="url(#SVGID_3_)" d="M22 5.949c0-.344-.12-.657-.316-.91L23 4.5 12 1 1 4.5l3 1.227V10.694l-.23 1.69c-.674.588-.77 1.46-.77 2.116 0 .96.893 3.114 2.16 3.454C6.702 21.302 9.003 23 12 23s5.297-1.698 6.84-5.046C20.108 17.614 21 15.46 21 14.5c0-.634-.085-1.473-.7-2.06L20 9.586V5.727l.621-.254A.493.493 0 0 1 21 5.95V9.25l-.5.75 1 3 1-3-.5-.75V5.949z"/><metadata><rdf:RDF xmlns:rdf="http://www.w3.org/1999/02/22-rdf-syntax-ns#" xmlns:rdfs="http://www.w3.org/2000/01/rdf-schema#" xmlns:dc="http://purl.org/dc/elements/1.1/"><rdf:Description about="https://iconscout.com/legal#licenses" dc:title="people,avatar,head,stydent,graduate,graduation,hat" dc:description="people,avatar,head,stydent,graduate,graduation,hat" dc:publisher="Iconscout" dc:date="2017-11-13" dc:format="image/svg+xml" dc:language="en"><dc:creator><rdf:Bag><rdf:li>Those Icons</rdf:li></rdf:Bag></dc:creator></rdf:Description></rdf:RDF></metadata></svg>